<?xml version="1.0" encoding="utf-8"?>
<svg version="1.1" id="Layer_1" xmlns="http://www.w3.org/2000/svg" xmlns:xlink="http://www.w3.org/1999/xlink" x="0px" y="0px"
	 viewBox="0 0 2638 1646.187" enable-background="new 0 0 2638 1646.187" xml:space="preserve">
<g>
	<polygon points="505.3,1142.853 215.594,1142.853 215.594,843.913 39,843.913 39,1621.85 215.594,1621.85 215.594,1296.364 
		505.3,1296.364 505.3,1621.85 680.74,1621.85 680.74,843.913 505.3,843.913 	"/>
	<polygon points="1010.834,1292.9 1297.078,1292.9 1297.078,1149.779 1010.834,1149.779 1010.834,988.19 1314.39,988.19 
		1314.39,843.913 834.24,843.913 834.24,1621.85 1330.551,1621.85 1330.551,1477.574 1010.834,1477.574 	"/>
	<path d="M1627.175,843.913l0.825-54.047c0.301-7.251,8.885-14.512,8.817-21.773c-0.043-4.613,0.472-9.229,0.653-13.846
		c0.238-6.054,3.149-11.162,5.854-16.294c1.009-1.914,2.342-3.666,4.353-5.054c3.345-2.309,7.194-3.538,10.532-5.911
		c10.771-7.655,20.183-16.446,26.424-28.283c4.707-8.927,9.41-17.858,14.242-26.717c1.147-2.103,1.426-4.548,2.645-6.509
		c4.206-6.761,6.982-14.228,10.767-21.195c3.553-6.543,6.16-13.55,9.889-20.039c2.423-4.218,5.47-8.032,7.484-12.522
		c4.473-9.975,9.579-19.656,13.685-29.81c2.763-6.835,6.123-13.496,7.566-20.74c2.011-10.096,3.691-20.233,6.758-30.109
		c3.714-11.964,8.281-23.579,14.695-34.295c4.635-7.743,10.39-14.808,15.576-22.226c7.723-11.047,15.783-21.849,21.688-34.043
		c4.773-9.857,10.091-19.471,13.869-29.778c1.613-4.4,3.371-8.945,2.874-13.721c-1.182-11.354-8.754-17.852-18.131-22.74
		c-4.865-2.536-10.213-3.684-15.6-4.277c-5.818-0.64-11.76-0.316-17.27,1.565c-6.447,2.2-11.947,6.299-16.812,11.061
		c-6.668,6.528-13.121,13.289-18.776,20.722c-4.546,5.977-8.51,12.383-12.119,18.966c-4.854,8.855-8.93,18.107-13.441,27.138
		c-2.604,5.213-4.992,10.512-7.442,15.79c-4.813,10.366-9.558,20.752-13.156,31.622c-1.524,4.604-2.406,9.458-4.838,13.708
		c-0.933,1.63-1.354,3.986-3.84,4.25c-0.987,0.105-1.873,0.58-2.786,0.717c-4.785,0.722-8.094,1.291-10.067-4.49
		c-1.064-3.116-2.598-6.101-4.825-8.646c-0.459-0.525-0.945-1.271-0.94-1.911c0.017-2.373-0.697-4.607-1.038-6.908
		c-0.67-4.52-2.154-8.742-3.901-12.937c-1.306-3.138-2.98-6.102-3.193-9.73c-0.361-6.124-1.478-12.173-3.554-18.002
		c-0.291-0.815-0.157-1.704-0.028-2.619c0.562-3.98,1.897-7.861,1.206-12.015c-0.354-2.127-0.224-4.375-0.031-6.544
		c0.738-8.306,1.614-16.593,1.465-24.959c-0.181-10.237-0.249-20.442,2.411-30.512c2.527-9.564,5.043-19.124,8.375-28.436
		c3.114-8.702,6.356-17.346,8.922-26.242c4.138-14.347,8.409-28.665,10.813-43.421c0.639-3.923,1.386-8.014,2.834-11.42
		c2.618-6.159,4.347-12.547,6.4-18.837c1.704-5.221,2.972-10.61,4.438-15.913c2.918-10.559,5.219-21.259,7.938-31.859
		c1.906-7.428,1.772-15.233,4.648-22.502c2.235-5.649,3.417-11.669,5.095-17.516c3.569-12.441,5.391-25.21,7.515-37.923
		c0.669-4.001,0.891-8.075,1.492-12.089c0.931-6.216,1.483-12.452,0.864-18.713c-0.713-7.205-2.655-14.064-7.599-19.588
		c-5.816-6.498-12.901-9.486-21.918-8.247c-9.225,1.267-15.735,5.721-19.751,14.003c-4.042,8.336-6.551,17.266-9.915,25.868
		c-4.281,10.948-8.055,22.104-11.734,33.273c-3.834,11.64-7.274,23.41-10.899,35.118c-5.07,16.374-13.112,31.555-19.762,47.297
		c-2.461,5.825-5.662,11.344-7.549,17.396c-4.204,13.482-8.088,27.065-12.407,40.508c-4.982,15.506-10.912,30.7-15.503,46.34
		c-2.759,9.399-6.31,18.497-10.102,27.523c-1.126,2.679-3.429,2.478-5.245,2.712c-3.489,0.45-7.073,0.185-10.618,0.179
		c-2.115-0.003-4.245,0.058-6.336-0.19c-0.752-0.089-2.262,0.331-2.17-1.486c0.103-2.022-0.108-4.059-0.032-6.083
		c0.553-14.631,2.192-29.151,4.378-43.624c1.712-11.335,3.258-22.69,3.211-34.203c-0.021-5.277-0.043-10.594,0.54-15.825
		c1.239-11.116,1.945-22.272,2.727-33.417c0.741-10.559-0.273-21.118-0.793-31.68c-1.077-21.903-3.143-43.786-2.071-65.756
		c0.508-10.409,0.382-20.852-0.849-31.144c-1.358-11.362-2.15-22.749-3.118-34.132c-0.752-8.845-4.15-16.506-10.334-22.891
		c-9.63-9.942-22.875-11.309-33.554-5.749c-6.59,3.431-11.3,8.593-13.042,16.06c-0.785,3.362-0.562,6.79-0.716,10.198
		c-0.709,15.686-1.084,31.381-0.711,47.078c0.342,14.339-0.486,28.576-2.85,42.722c-1.151,6.886-2.596,13.738-3.379,20.666
		c-1.071,9.466-3.115,18.743-4.815,28.085c-1.613,8.861-3.674,17.647-4.125,26.683c-0.399,8.009-0.571,16.033-1.149,24.029
		c-1.152,15.953-2.186,31.932-2.15,47.909c0.04,18.033-1.996,35.837-4.095,53.67c-0.119,1.014-0.663,1.652-1.525,2.017
		c-2.14,0.906-4.238,2.031-6.473,2.563c-2.998,0.714-6.081,1.587-9.014-0.68c-2.931-2.266-4.495-5.429-5.616-8.675
		c-2.225-6.438-3.223-13.208-4.574-19.876c-2.674-13.2-4.628-26.517-6.644-39.828c-1.497-9.88-3.345-19.724-6.772-29.139
		c-5.689-15.624-11.888-31.055-16.413-47.095c-3.793-13.447-6.691-27.066-9-40.827c-1.947-11.605-3.807-23.225-5.858-34.811
		c-0.818-4.624-2.176-9.151-3.065-13.765c-1.947-10.091-3.542-20.26-6.901-30.02c-1.679-4.877-3.632-9.648-7.178-13.533
		c-5.247-5.749-11.994-8.91-19.49-10.098c-4.83-0.765-9.796-0.439-14.349,2.103c-3.664,2.046-6.823,4.643-9.557,7.781
		c-6.133,7.039-9.15,15.033-7.329,24.46c1.322,6.847,2.721,13.681,3.542,20.614c1.233,10.402,1.694,20.895,3.545,31.223
		c1.53,8.539,2.91,17.113,5.173,25.504c1.454,5.392,3.072,10.744,4.375,16.172c1.815,7.565,3.492,15.163,4.748,22.85
		c1.636,10.018,3.901,19.962,4.97,30.037c1.828,17.229,5.077,34.174,9.125,50.964c3.341,13.857,6.998,27.639,10.424,41.48
		c4.303,17.383,7.431,34.891,7.814,52.828c0.03,1.409,0.135,2.828-1.232,3.967c-4.692,3.91-9.247,7.985-13.947,11.884
		c-1.127,0.936-2.252,1.871-3.837,2.344c-7.601,2.269-15.932-3.654-19.139-8.942c-6.38-10.524-13.834-20.28-20.673-30.469
		c-2.19-3.262-4.884-6.225-6.766-9.645c-6.147-11.168-13.116-21.648-21.801-31.096c-5.893-6.411-11.655-13.01-17.096-19.83
		c-6.221-7.798-11.325-16.397-16.57-24.86c-5.068-8.177-9.715-16.621-15.073-24.619c-5.67-8.462-11.587-16.759-17.293-25.197
		c-6.405-9.471-14.295-15.816-26.683-14.545c-7.615,0.781-13.029,4.48-16.495,10.957c-4.189,7.828-3.466,16.196-0.844,24.205
		c4.897,14.96,10.741,29.557,18.361,43.404c4.732,8.597,9.694,17.058,14.778,25.44c2.854,4.703,5.598,9.467,8.4,14.198
		c5.74,9.688,10.294,20.04,16.571,29.438c1.893,2.834,3.99,5.508,5.915,8.312c4.128,6.011,8.218,12.055,12.555,17.915
		c5.801,7.839,11.431,15.787,16.112,24.346c6.886,12.59,13.496,25.331,19.043,38.579c2.423,5.785,5.095,11.489,5.504,17.974
		c0.217,3.442,1.433,6.811,2.07,10.237c1.172,6.306,4.501,11.891,5.879,18.152c1.039,4.718,2.795,9.268,4.09,13.942
		c4.063,14.662,8.29,29.277,12.512,43.894c1.955,6.77,4.03,13.506,6.151,20.228c1.998,6.333,3.961,12.685,6.253,18.909
		c3.385,9.195,7.13,18.258,10.69,27.39c5.064,12.992,10.698,25.726,17.528,37.892c4.042,7.201,8.208,14.348,12.235,21.545
		c3.848,6.876,8.046,13.503,12.164,20.193c3.092,5.023,6.417,9.903,9.6,14.871c1.743,2.722,3.424,5.458,4.446,8.59
		c1.747,5.349,6.384,9.155,8.027,14.575c1.191,3.929,3.955,7.033,5.472,10.786c0.606,1.498,1.758,2.581,3.286,3.084
		c1.51,0.497,1.902,1.595,1.987,2.968c0.531,8.664,13.823,30.515,13.882,32.783v53.18v777.937h485.924v-147.739h-309.329V843.913z"
		/>
	<path d="M2515.899,900.47c-51.94-41.552-129.272-62.328-237.767-62.328c-107.343,0-183.52,6.926-237.769,16.159v767.549h174.286
		v-278.164c16.161,2.307,36.935,3.462,60.02,3.462c103.879,0,192.752-25.393,252.772-81.949
		c46.169-43.86,71.56-108.495,71.56-184.673S2565.529,939.712,2515.899,900.47z M2273.515,1212.106
		c-25.393,0-43.861-1.155-58.866-4.617V977.802c12.698-3.462,36.935-6.926,72.716-6.926c87.721,0,137.351,42.706,137.351,114.267
		C2424.715,1164.784,2367.004,1212.106,2273.515,1212.106z"/>
</g>
</svg>
